<svg width="51" height="51" viewBox="0 0 51 51" fill="none" xmlns="http://www.w3.org/2000/svg">
<g id="ph:star-fill">
<path id="Vector" d="M46.7168 22.7866L37.732 30.6279L40.4235 42.3021C40.5659 42.9124 40.5253 43.5511 40.3066 44.1384C40.088 44.7258 39.7011 45.2356 39.1943 45.6042C38.6875 45.9729 38.0833 46.1839 37.4572 46.211C36.8311 46.2381 36.2108 46.08 35.6741 45.7565L25.492 39.5807L15.3319 45.7565C14.7951 46.08 14.1749 46.2381 13.5488 46.211C12.9227 46.1839 12.3185 45.9729 11.8117 45.6042C11.3049 45.2356 10.918 44.7258 10.6993 44.1384C10.4807 43.5511 10.4401 42.9124 10.5825 42.3021L13.27 30.6398L4.2832 22.7866C3.80788 22.3767 3.46417 21.8355 3.29519 21.231C3.1262 20.6265 3.13944 19.9856 3.33327 19.3886C3.52709 18.7915 3.89286 18.2651 4.38472 17.8751C4.87657 17.4851 5.47261 17.2491 6.09808 17.1965L17.9436 16.1706L22.5675 5.1418C22.809 4.56311 23.2162 4.06879 23.7381 3.72109C24.2599 3.37339 24.8729 3.18787 25.5 3.18787C26.1271 3.18787 26.7401 3.37339 27.2619 3.72109C27.7837 4.06879 28.191 4.56311 28.4325 5.1418L33.0703 16.1706L44.9119 17.1965C45.5373 17.2491 46.1334 17.4851 46.6252 17.8751C47.1171 18.2651 47.4829 18.7915 47.6767 19.3886C47.8705 19.9856 47.8838 20.6265 47.7148 21.231C47.5458 21.8355 47.2021 22.3767 46.7268 22.7866H46.7168Z" fill="#FFE500"/>
</g>
</svg>
