<svg width="21" height="24" viewBox="0 0 21 24" fill="none" xmlns="http://www.w3.org/2000/svg">
<g id="instagram logo" clip-path="url(#clip0_38_1236)">
<path id="Vector" d="M10.5047 6.60938C7.52342 6.60938 5.11874 9.01406 5.11874 11.9953C5.11874 14.9766 7.52342 17.3812 10.5047 17.3812C13.4859 17.3812 15.8906 14.9766 15.8906 11.9953C15.8906 9.01406 13.4859 6.60938 10.5047 6.60938ZM10.5047 15.4969C8.57811 15.4969 7.00311 13.9266 7.00311 11.9953C7.00311 10.0641 8.57342 8.49375 10.5047 8.49375C12.4359 8.49375 14.0062 10.0641 14.0062 11.9953C14.0062 13.9266 12.4312 15.4969 10.5047 15.4969ZM17.3672 6.38906C17.3672 7.0875 16.8047 7.64531 16.1109 7.64531C15.4125 7.64531 14.8547 7.08281 14.8547 6.38906C14.8547 5.69531 15.4172 5.13281 16.1109 5.13281C16.8047 5.13281 17.3672 5.69531 17.3672 6.38906ZM20.9344 7.66406C20.8547 5.98125 20.4703 4.49063 19.2375 3.2625C18.0094 2.03438 16.5187 1.65 14.8359 1.56563C13.1015 1.46719 7.90311 1.46719 6.16874 1.56563C4.49061 1.64531 2.99999 2.02969 1.76718 3.25781C0.534366 4.48594 0.154678 5.97656 0.0703033 7.65938C-0.0281341 9.39375 -0.0281341 14.5922 0.0703033 16.3266C0.149991 18.0094 0.534366 19.5 1.76718 20.7281C2.99999 21.9562 4.48593 22.3406 6.16874 22.425C7.90311 22.5234 13.1015 22.5234 14.8359 22.425C16.5187 22.3453 18.0094 21.9609 19.2375 20.7281C20.4656 19.5 20.85 18.0094 20.9344 16.3266C21.0328 14.5922 21.0328 9.39844 20.9344 7.66406ZM18.6937 18.1875C18.3281 19.1062 17.6203 19.8141 16.6969 20.1844C15.314 20.7328 12.0328 20.6062 10.5047 20.6062C8.97655 20.6062 5.69061 20.7281 4.31249 20.1844C3.39374 19.8188 2.68593 19.1109 2.31561 18.1875C1.76718 16.8047 1.89374 13.5234 1.89374 11.9953C1.89374 10.4672 1.77186 7.18125 2.31561 5.80313C2.68124 4.88438 3.38905 4.17656 4.31249 3.80625C5.6953 3.25781 8.97655 3.38438 10.5047 3.38438C12.0328 3.38438 15.3187 3.2625 16.6969 3.80625C17.6156 4.17188 18.3234 4.87969 18.6937 5.80313C19.2422 7.18594 19.1156 10.4672 19.1156 11.9953C19.1156 13.5234 19.2422 16.8094 18.6937 18.1875Z" fill="white"/>
</g>
<defs>
<clipPath id="clip0_38_1236">
<rect width="21" height="24" fill="white"/>
</clipPath>
</defs>
</svg>
